<svg width="97" height="39" viewBox="0 0 97 39" fill="none" xmlns="http://www.w3.org/2000/svg">
<path d="M14.9719 18H10.5891V0.84375H15.4758C17.3742 0.84375 18.7219 0.9375 19.5187 1.125C20.3 1.32812 20.9523 1.64844 21.4758 2.08594C22.1008 2.60938 22.5812 3.25781 22.9172 4.03125C23.2531 4.82031 23.4211 5.69922 23.4211 6.66797C23.4211 7.69922 23.2531 8.59766 22.9172 9.36328C22.6203 10.1367 22.1398 10.7773 21.4758 11.2852C20.9992 11.6602 20.425 11.9297 19.7531 12.0938C19.1516 12.2578 18.1047 12.3398 16.6125 12.3398H15.8156H14.9719V18ZM14.9719 8.56641H15.8625C16.9719 8.56641 17.757 8.40625 18.218 8.08594C18.6633 7.78906 18.8859 7.26953 18.8859 6.52734C18.8859 5.81641 18.6672 5.30859 18.2297 5.00391C17.8 4.69141 17.0266 4.53516 15.9094 4.53516H14.9719V8.56641ZM41.0133 9.45703C41.0133 10.6992 40.7906 11.8594 40.3453 12.9375C39.9 13.9922 39.2359 14.9531 38.3531 15.8203C37.4781 16.6641 36.4781 17.3125 35.3531 17.7656C34.1734 18.2266 33.0055 18.457 31.8492 18.457C30.6773 18.457 29.5094 18.2266 28.3453 17.7656C27.1969 17.3047 26.2047 16.6562 25.3687 15.8203C24.525 15.0156 23.8609 14.0469 23.3766 12.9141C22.9078 11.8047 22.6734 10.6523 22.6734 9.45703C22.6734 8.26172 22.9078 7.10938 23.3766 6C23.8609 4.86719 24.525 3.89844 25.3687 3.09375C26.2281 2.23438 27.2203 1.57813 28.3453 1.125C29.4391 0.679688 30.607 0.457031 31.8492 0.457031C33.0914 0.457031 34.2672 0.683594 35.3766 1.13672C36.4859 1.58203 37.4742 2.23438 38.3414 3.09375C39.2164 3.95312 39.8844 4.92188 40.3453 6C40.7906 7.07812 41.0133 8.23047 41.0133 9.45703ZM31.8492 14.4961C33.1383 14.4961 34.2164 14.0156 35.0836 13.0547C35.5133 12.5781 35.8297 12.043 36.0328 11.4492C36.2359 10.8555 36.3375 10.1914 36.3375 9.45703C36.3375 8.02734 35.9117 6.82812 35.0602 5.85938C34.193 4.89844 33.1227 4.41797 31.8492 4.41797C30.5445 4.41797 29.4703 4.89844 28.6266 5.85938C27.7828 6.82031 27.3609 8.01953 27.3609 9.45703C27.3609 10.9492 27.775 12.1562 28.6031 13.0781C29.4547 14.0234 30.5367 14.4961 31.8492 14.4961ZM53.2383 0.84375L55.3945 9C55.4883 9.32812 55.5859 9.71094 55.6875 10.1484C55.7188 10.3047 55.7617 10.5312 55.8164 10.8281C55.8711 11.1172 55.9141 11.3477 55.9453 11.5195C56.0547 11.0117 56.1523 10.5078 56.2383 10.0078C56.2852 9.76562 56.3672 9.42969 56.4844 9L58.5 0.84375H63.2227L58.3711 18H54.0352L51.9141 10.6758C51.7656 10.1289 51.6406 9.625 51.5391 9.16406C51.5312 9.11719 51.5078 9.02344 51.4688 8.88281C51.4297 8.74219 51.3867 8.57422 51.3398 8.37891C51.3242 8.43359 51.2695 8.66406 51.1758 9.07031C51.0352 9.69531 50.8984 10.2305 50.7656 10.6758L48.6797 18H44.332L39.4922 0.84375H44.2148L46.1836 9.04688C46.2461 9.32031 46.3398 9.74609 46.4648 10.3242C46.5898 10.9336 46.6719 11.3633 46.7109 11.6133C46.8125 11.1289 46.8906 10.7852 46.9453 10.582C47.0859 9.94141 47.207 9.42969 47.3086 9.04688L49.4648 0.84375H53.2383ZM62.4516 18V0.84375H72.9633V4.60547H67.0102V7.58203H72.6234V11.2617H67.0102V14.1562H72.9633V18H62.4516ZM73.6687 18V0.84375H78.5555C79.5008 0.84375 80.2977 0.863281 80.9461 0.902344C81.6023 0.941406 82.1414 1.00781 82.5633 1.10156C83.2898 1.27344 83.9383 1.57031 84.5086 1.99219C85.1336 2.46094 85.6062 3.0625 85.9266 3.79688C86.2625 4.5 86.4305 5.29688 86.4305 6.1875C86.4305 7.50781 86.1023 8.58984 85.4461 9.43359C84.8055 10.2773 83.8562 10.8281 82.5984 11.0859L87.2742 18H81.9891L78.0516 11.2852V18H73.6687ZM78.0516 8.95312H78.9187C79.9422 8.95312 80.6805 8.78516 81.1336 8.44922C81.5945 8.07422 81.825 7.53125 81.825 6.82031C81.825 5.96094 81.6102 5.35156 81.1805 4.99219C80.743 4.625 80.0125 4.44141 78.9891 4.44141H78.0516V8.95312ZM5.13707 38H0.389023V19.4141H5.68297C7.73961 19.4141 9.19957 19.5156 10.0629 19.7188C10.9092 19.9388 11.6159 20.2858 12.183 20.7598C12.8601 21.3268 13.3806 22.0293 13.7445 22.8672C14.1084 23.722 14.2904 24.6742 14.2904 25.7236C14.2904 26.8408 14.1084 27.8141 13.7445 28.6436C13.4229 29.4814 12.9024 30.1755 12.183 30.7256C11.6667 31.1318 11.0446 31.4238 10.3168 31.6016C9.66506 31.7793 8.53095 31.8682 6.91441 31.8682H6.05113H5.13707V38ZM5.13707 27.7803H6.10191C7.30374 27.7803 8.15432 27.6068 8.65367 27.2598C9.13609 26.9382 9.3773 26.3753 9.3773 25.5713C9.3773 24.8011 9.14032 24.251 8.66637 23.9209C8.20087 23.5824 7.36298 23.4131 6.15269 23.4131H5.13707V27.7803ZM21.4079 19.4141H26.486V28.4531C26.486 29.8327 26.5199 30.7891 26.5876 31.3223C26.6722 31.957 26.7865 32.4395 26.9304 32.7695C27.1081 33.252 27.4424 33.6074 27.9333 33.8359C28.4242 34.0983 29.0166 34.2295 29.7106 34.2295C30.3962 34.2295 30.9844 34.0983 31.4753 33.8359C31.9238 33.6159 32.2624 33.2604 32.4909 32.7695C32.6263 32.431 32.7363 31.9486 32.821 31.3223C32.8971 30.8145 32.9352 29.8581 32.9352 28.4531V27.1836V19.4141H37.9753V29.2402C37.9753 31.2546 37.8526 32.7526 37.6071 33.7344C37.3786 34.7077 36.9639 35.5413 36.363 36.2354C35.7028 37.0055 34.8268 37.5684 33.735 37.9238C32.6517 38.3047 31.3102 38.4951 29.7106 38.4951C28.0772 38.4951 26.7315 38.3047 25.6735 37.9238C24.5986 37.5684 23.7227 37.0055 23.0456 36.2354C22.4616 35.5583 22.0469 34.7246 21.8014 33.7344C21.5391 32.7357 21.4079 31.2376 21.4079 29.2402V27.3105V19.4141ZM46.5146 38V19.4141H51.5801V33.6582H57.877V38H46.5146ZM65.8577 31.9951C66.6364 32.8584 67.3812 33.4974 68.0921 33.9121C68.8369 34.3353 69.5648 34.5469 70.2757 34.5469C70.9443 34.5469 71.4987 34.3649 71.9388 34.001C72.3789 33.637 72.5989 33.1758 72.5989 32.6172C72.5989 32.0078 72.417 31.5296 72.053 31.1826C71.6637 30.8525 70.8047 30.5098 69.4759 30.1543C67.6647 29.6634 66.3825 29.0286 65.6292 28.25C64.8675 27.4544 64.4866 26.3711 64.4866 25C64.4866 23.2227 65.0833 21.7754 66.2767 20.6582C67.4531 19.5326 68.9935 18.9697 70.8978 18.9697C71.9726 18.9697 72.946 19.1094 73.8177 19.3887C74.7318 19.668 75.5993 20.0827 76.4202 20.6328L74.8333 24.2764C74.2747 23.7939 73.6823 23.4215 73.056 23.1592C72.4466 22.9137 71.8499 22.791 71.2659 22.791C70.6735 22.791 70.1784 22.9391 69.7806 23.2354C69.3997 23.5146 69.2093 23.887 69.2093 24.3525C69.2093 24.8011 69.3743 25.1735 69.7044 25.4697C70.0514 25.749 70.7031 26.0156 71.6595 26.2695C71.6933 26.278 71.723 26.2865 71.7484 26.2949C71.7738 26.2949 71.8118 26.3034 71.8626 26.3203C73.9277 26.8704 75.2904 27.4883 75.9505 28.1738C76.3821 28.6055 76.7207 29.1514 76.9661 29.8115C77.1862 30.4378 77.2962 31.1488 77.2962 31.9443C77.2962 33.9079 76.6488 35.4948 75.3538 36.7051C74.0504 37.8984 72.3239 38.4951 70.1741 38.4951C68.8538 38.4951 67.6732 38.2793 66.6321 37.8477C65.5996 37.416 64.5797 36.722 63.5726 35.7656L65.8577 31.9951ZM84.82 38V19.4141H96.2077V23.4893H89.7584V26.7139H95.8395V30.7002H89.7584V33.8359H96.2077V38H84.82Z" fill="#EE1D52"/>
</svg>
