<svg width="10" height="9" viewBox="0 0 10 9" fill="none" xmlns="http://www.w3.org/2000/svg">
<path d="M5.87708 9V5.98196C5.87708 5.07068 6.03073 4.20902 6.33803 3.39699C6.64533 2.58496 6.9953 1.8812 7.38796 1.28571C7.78916 0.681203 8.12207 0.252632 8.38668 0L9.75672 0.622556C9.54332 0.884211 9.28724 1.26316 8.98848 1.7594C8.69825 2.24662 8.44217 2.79699 8.22023 3.41053C7.99829 4.02406 7.88732 4.64211 7.88732 5.26466H10V9H5.87708ZM0 9V5.98196C0 5.07068 0.153649 4.20902 0.460947 3.39699C0.768246 2.58496 1.11822 1.8812 1.51088 1.28571C1.91208 0.681203 2.24499 0.252632 2.5096 0L3.87964 0.622556C3.66624 0.884211 3.41016 1.26316 3.1114 1.7594C2.82117 2.24662 2.56509 2.79699 2.34315 3.41053C2.12121 4.02406 2.01024 4.64211 2.01024 5.26466H4.12292V9H0Z" fill="white"/>
</svg>
