<svg width="38" height="9" viewBox="0 0 38 9" fill="none" xmlns="http://www.w3.org/2000/svg">
<path d="M10.924 8.88V0.12H13.612C14.46 0.12 15.132 0.324 15.628 0.732C16.124 1.132 16.372 1.68 16.372 2.376C16.372 2.768 16.284 3.108 16.108 3.396C15.932 3.684 15.692 3.908 15.388 4.068C15.092 4.228 14.748 4.308 14.356 4.308V4.26C14.78 4.252 15.156 4.332 15.484 4.5C15.82 4.66 16.084 4.9 16.276 5.22C16.476 5.54 16.576 5.928 16.576 6.384C16.576 6.888 16.46 7.328 16.228 7.704C15.996 8.08 15.668 8.372 15.244 8.58C14.828 8.78 14.328 8.88 13.744 8.88H10.924ZM12.388 7.632H13.648C14.088 7.632 14.432 7.516 14.68 7.284C14.936 7.044 15.064 6.72 15.064 6.312C15.064 5.904 14.936 5.576 14.68 5.328C14.432 5.072 14.088 4.944 13.648 4.944H12.388V7.632ZM12.388 3.732H13.588C13.988 3.732 14.3 3.628 14.524 3.42C14.756 3.204 14.872 2.912 14.872 2.544C14.872 2.176 14.756 1.888 14.524 1.68C14.3 1.472 13.988 1.368 13.588 1.368H12.388V3.732Z" fill="#1C2127"/>
<path d="M17.3753 8.88L19.5833 0.12H21.5153L23.7353 8.88H22.1993L21.7193 6.756H19.3913L18.9113 8.88H17.3753ZM19.6673 5.532H21.4433L20.9153 3.18C20.8273 2.788 20.7513 2.436 20.6873 2.124C20.6233 1.804 20.5793 1.572 20.5553 1.428C20.5313 1.572 20.4873 1.804 20.4233 2.124C20.3673 2.436 20.2913 2.784 20.1953 3.168L19.6673 5.532Z" fill="#1C2127"/>
<path d="M27.5586 9C26.9986 9 26.5066 8.896 26.0826 8.688C25.6666 8.472 25.3426 8.172 25.1106 7.788C24.8866 7.396 24.7746 6.936 24.7746 6.408V2.592C24.7746 2.056 24.8866 1.596 25.1106 1.212C25.3426 0.828 25.6666 0.532 26.0826 0.323999C26.5066 0.108 26.9986 0 27.5586 0C28.1266 0 28.6146 0.108 29.0226 0.323999C29.4386 0.532 29.7626 0.828 29.9946 1.212C30.2266 1.596 30.3426 2.056 30.3426 2.592H28.8306C28.8306 2.176 28.7186 1.86 28.4946 1.644C28.2786 1.428 27.9666 1.32 27.5586 1.32C27.1506 1.32 26.8346 1.428 26.6106 1.644C26.3866 1.86 26.2746 2.172 26.2746 2.58V6.408C26.2746 6.816 26.3866 7.132 26.6106 7.356C26.8346 7.572 27.1506 7.68 27.5586 7.68C27.9666 7.68 28.2786 7.572 28.4946 7.356C28.7186 7.132 28.8306 6.816 28.8306 6.408H30.3426C30.3426 6.928 30.2266 7.384 29.9946 7.776C29.7626 8.168 29.4386 8.472 29.0226 8.688C28.6146 8.896 28.1266 9 27.5586 9Z" fill="#1C2127"/>
<path d="M31.7779 8.88V0.12H33.2779V3.66H34.3219L35.9659 0.12H37.5979L35.6419 4.32L37.6939 8.88H36.0259L34.2979 5.028H33.2779V8.88H31.7779Z" fill="#1C2127"/>
<path fill-rule="evenodd" clip-rule="evenodd" d="M8 3.88C8 3.99364 7.94733 4.10263 7.85357 4.18299C7.75981 4.26335 7.63265 4.30849 7.50006 4.30849H1.7077L3.85446 6.14759C3.90095 6.18743 3.93782 6.23473 3.96297 6.28678C3.98813 6.33883 4.00108 6.39462 4.00108 6.45096C4.00108 6.50731 3.98813 6.5631 3.96297 6.61515C3.93782 6.6672 3.90095 6.7145 3.85446 6.75434C3.80798 6.79418 3.7528 6.82578 3.69207 6.84734C3.63133 6.8689 3.56624 6.88 3.5005 6.88C3.43477 6.88 3.36967 6.8689 3.30894 6.84734C3.24821 6.82578 3.19303 6.79418 3.14654 6.75434L0.146877 4.18337C0.100319 4.14357 0.0633804 4.09629 0.0381768 4.04423C0.0129732 3.99217 0 3.93636 0 3.88C0 3.82364 0.0129732 3.76783 0.0381768 3.71577C0.0633804 3.66371 0.100319 3.61643 0.146877 3.57663L3.14654 1.00566C3.24042 0.925202 3.36774 0.88 3.5005 0.88C3.63326 0.88 3.76059 0.925202 3.85446 1.00566C3.94834 1.08612 4.00108 1.19525 4.00108 1.30904C4.00108 1.42282 3.94834 1.53195 3.85446 1.61241L1.7077 3.45151H7.50006C7.63265 3.45151 7.75981 3.49665 7.85357 3.57701C7.94733 3.65737 8 3.76636 8 3.88Z" fill="#1C2127"/>
</svg>
