<svg width="97" height="39" fill="none" xmlns="http://www.w3.org/2000/svg"><path d="M14.972 18h-4.383V.844h4.887c1.898 0 3.246.094 4.043.281.781.203 1.433.523 1.957.96a5.199 5.199 0 0 1 1.441 1.946c.336.79.504 1.668.504 2.637 0 1.031-.168 1.93-.504 2.695a4.332 4.332 0 0 1-1.441 1.922c-.477.375-1.051.645-1.723.809-.601.164-1.648.246-3.14.246h-1.641V18Zm0-9.434h.89c1.11 0 1.895-.16 2.356-.48.445-.297.668-.816.668-1.559 0-.71-.219-1.218-.656-1.523-.43-.313-1.203-.469-2.32-.469h-.938v4.031Zm26.041.891a9.027 9.027 0 0 1-.668 3.48c-.445 1.055-1.11 2.016-1.992 2.883a9.274 9.274 0 0 1-3 1.946c-1.18.46-2.348.691-3.504.691-1.172 0-2.34-.23-3.504-.691a8.783 8.783 0 0 1-2.976-1.946 8.675 8.675 0 0 1-1.992-2.906 8.796 8.796 0 0 1-.704-3.457c0-1.195.235-2.348.704-3.457a8.675 8.675 0 0 1 1.992-2.906 8.838 8.838 0 0 1 2.976-1.969A9.202 9.202 0 0 1 31.85.457c1.242 0 2.418.227 3.528.68a8.873 8.873 0 0 1 2.964 1.957A9.018 9.018 0 0 1 40.345 6a8.966 8.966 0 0 1 .668 3.457Zm-9.164 5.04c1.29 0 2.367-.481 3.235-1.442a4.6 4.6 0 0 0 .949-1.606c.203-.594.304-1.258.304-1.992 0-1.43-.425-2.629-1.277-3.598-.867-.96-1.937-1.441-3.21-1.441-1.306 0-2.38.48-3.223 1.441-.844.961-1.266 2.16-1.266 3.598 0 1.492.414 2.7 1.242 3.621.852.945 1.934 1.418 3.246 1.418ZM53.24.843 55.394 9c.093.328.19.71.292 1.148a101.14 101.14 0 0 1 .258 1.371c.11-.507.207-1.011.293-1.511.047-.242.13-.578.246-1.008L58.5.844h4.723L58.37 18h-4.336l-2.12-7.324a32.385 32.385 0 0 1-.376-1.512 3.525 3.525 0 0 0-.07-.281 14.92 14.92 0 0 1-.13-.504c-.015.055-.07.285-.163.691-.14.625-.278 1.16-.41 1.606L48.68 18h-4.348L39.492.844h4.723l1.969 8.203c.062.273.156.7.28 1.277.126.61.208 1.04.247 1.29.102-.485.18-.829.234-1.032.14-.64.262-1.152.364-1.535L49.465.844h3.773ZM62.451 18V.844h10.511v3.761H67.01v2.977h5.613v3.68H67.01v2.894h5.953V18H62.452Zm11.217 0V.844h4.886c.946 0 1.743.02 2.391.058.656.04 1.195.106 1.617.2a5.273 5.273 0 0 1 1.946.89 4.426 4.426 0 0 1 1.418 1.805c.335.703.503 1.5.503 2.39 0 1.32-.328 2.403-.984 3.247-.64.843-1.59 1.394-2.848 1.652L87.274 18H81.99l-3.937-6.715V18h-4.383Zm4.383-9.047h.867c1.023 0 1.761-.168 2.215-.504.46-.375.691-.918.691-1.629 0-.86-.215-1.468-.645-1.828-.437-.367-1.168-.55-2.19-.55h-.938v4.511ZM5.137 38H.39V19.414h5.294c2.057 0 3.517.102 4.38.305.846.22 1.553.567 2.12 1.04a5.63 5.63 0 0 1 1.562 2.108c.363.855.545 1.807.545 2.857 0 1.117-.182 2.09-.545 2.92a4.691 4.691 0 0 1-1.562 2.082c-.516.406-1.138.698-1.866.876-.652.177-1.786.266-3.403.266H5.137V38Zm0-10.22h.965c1.202 0 2.052-.173 2.552-.52.482-.322.723-.885.723-1.689 0-.77-.237-1.32-.71-1.65-.466-.339-1.304-.508-2.514-.508H5.137v4.367Zm16.27-8.366h5.079v9.04c0 1.379.034 2.335.102 2.868.084.635.198 1.118.342 1.448.178.482.512.837 1.003 1.066.491.262 1.084.394 1.778.394.685 0 1.273-.132 1.764-.394.449-.22.787-.576 1.016-1.066.135-.339.245-.821.33-1.448.076-.508.114-1.464.114-2.869v-9.039h5.04v9.826c0 2.015-.122 3.513-.368 4.494-.228.974-.643 1.807-1.244 2.501-.66.77-1.536 1.333-2.628 1.689-1.083.38-2.425.571-4.024.571-1.634 0-2.98-.19-4.037-.571-1.075-.356-1.951-.919-2.628-1.689-.584-.677-1-1.51-1.245-2.5-.262-1-.393-2.497-.393-4.495v-9.826ZM46.516 38V19.414h5.065v14.244h6.297V38H46.515Zm19.343-6.005c.778.863 1.523 1.502 2.234 1.917.745.423 1.473.635 2.184.635.668 0 1.223-.182 1.663-.546.44-.364.66-.825.66-1.384 0-.61-.182-1.087-.546-1.434-.39-.33-1.248-.673-2.577-1.029-1.811-.49-3.094-1.125-3.847-1.904-.761-.796-1.142-1.879-1.142-3.25 0-1.777.596-3.225 1.79-4.342 1.176-1.125 2.716-1.688 4.62-1.688 1.076 0 2.049.14 2.92.419.915.279 1.782.694 2.603 1.244l-1.587 3.643a6.642 6.642 0 0 0-1.777-1.117 4.77 4.77 0 0 0-1.79-.368c-.593 0-1.088.148-1.485.444-.381.28-.572.652-.572 1.117 0 .45.165.822.495 1.118.347.279 1 .546 1.956.8.033.008.063.017.088.025.026 0 .064.008.115.025 2.065.55 3.427 1.168 4.088 1.854.431.431.77.977 1.015 1.637.22.627.33 1.338.33 2.133 0 1.964-.647 3.55-1.942 4.761-1.304 1.193-3.03 1.79-5.18 1.79-1.32 0-2.5-.216-3.542-.647-1.032-.432-2.052-1.126-3.06-2.082l2.286-3.77ZM84.82 38V19.414h11.388v4.075h-6.45v3.225h6.082V30.7h-6.082v3.136h6.45V38H84.82Z" fill="#EE1D52"/></svg>