<svg width="10" height="9" fill="none" xmlns="http://www.w3.org/2000/svg"><path d="M5.877 9V5.982c0-.911.154-1.773.461-2.585.307-.812.657-1.516 1.05-2.111C7.789.68 8.122.253 8.387 0l1.37.623c-.214.261-.47.64-.769 1.136a9.605 9.605 0 0 0-.768 1.652 5.416 5.416 0 0 0-.333 1.854H10V9H5.877ZM0 9V5.982c0-.911.154-1.773.46-2.585.308-.812.658-1.516 1.05-2.111C1.913.68 2.246.253 2.51 0l1.37.623c-.214.261-.47.64-.769 1.136a9.605 9.605 0 0 0-.768 1.652 5.416 5.416 0 0 0-.333 1.854h2.113V9H0Z" fill="#fff"/></svg>